<?xml version="1.0" encoding="utf-8"?>
<!-- Generator: Adobe Illustrator 24.0.1, SVG Export Plug-In . SVG Version: 6.00 Build 0)  -->
<svg version="1.1" id="Layer_1" xmlns="http://www.w3.org/2000/svg" xmlns:xlink="http://www.w3.org/1999/xlink" x="0px" y="0px"
	 viewBox="0 0 140 40" style="enable-background:new 0 0 140 40;" xml:space="preserve">
<style type="text/css">
	.st0{fill:#5E5855;}
	.st1{fill:#0066CC;}
	.st2{fill:#AB3192;}
</style>
<g>
	<g>
		<path class="st0" d="M54.4,39.79c-0.69-0.01-1.32-0.39-1.64-1.01L46.5,26.37l-6.32-12c3.59-1.87,4.73,0.93,4.73,0.93l0.65,1.33
			l4.23,8.01l4.65,9.28l4.79-9.21l4.35-7.95l0.73-1.42c0,0,1.19-2.78,4.75-0.85l-6.55,12l-6.45,12.31
			C55.73,39.42,55.09,39.8,54.4,39.79L54.4,39.79z"/>
		<path class="st0" d="M75.43,9.21c1.34,0.01,2.44-1.07,2.45-2.41c0.01-1.34-1.07-2.44-2.41-2.45c-1.34-0.01-2.44,1.07-2.45,2.41
			C73.01,8.11,74.09,9.2,75.43,9.21"/>
		<path class="st0" d="M75.26,39.87L75.26,39.87c-1.02,0-1.85-0.84-1.84-1.86l0.07-22.33c0-1.02,0.84-1.85,1.86-1.84
			c1.02,0,1.85,0.84,1.84,1.86l-0.07,22.33C77.11,39.04,76.27,39.87,75.26,39.87"/>
		<path class="st0" d="M108.35,27.6l-0.04,12.38c0,0-1.55,0.02-2.31-0.63c-1.64-1.4-1.33-3.11-1.33-3.11l0-0.25
			c-2.4,2.49-5.78,4.03-9.51,4.02c-7.27-0.02-13.15-5.94-13.12-13.21c0.02-7.27,5.94-13.15,13.21-13.12
			c3.73,0.01,7.1,1.58,9.49,4.08l0.05-14.03c0,0-0.31-1.71,1.35-3.1c0.76-0.64,2.31-0.61,2.31-0.61l-0.09,26.15
			c0.01,0.24,0.02,0.48,0.02,0.72C108.37,27.12,108.37,27.36,108.35,27.6 M95.28,17.38c-5.22-0.02-9.46,4.2-9.48,9.42
			s4.2,9.46,9.42,9.48c5.22,0.02,9.46-4.2,9.48-9.42S100.5,17.4,95.28,17.38"/>
		<path class="st0" d="M139.11,26.94l-0.04,13.05c0,0-1.55,0.02-2.31-0.63c-1.64-1.4-1.33-3.11-1.33-3.11l0-0.28
			c-2.41,2.5-5.79,4.05-9.54,4.04c-7.27-0.02-13.15-5.94-13.12-13.21c0.02-7.27,5.94-13.15,13.21-13.12
			c7.27,0.02,13.15,5.94,13.12,13.21C139.11,26.91,139.11,26.92,139.11,26.94L139.11,26.94z M126.02,17.4
			c-5.22-0.02-9.46,4.2-9.48,9.42s4.2,9.46,9.42,9.48c5.22,0.02,9.46-4.2,9.48-9.42S131.24,17.42,126.02,17.4"/>
		<path class="st1" d="M15.49,16.76c-2.98-1.82-6.48-2.87-10.23-2.87c-1.51,0-2.97,0.17-4.38,0.49l8.19,12.44
			C10.29,22.9,12.53,19.44,15.49,16.76"/>
		<path class="st2" d="M30.69,13.88c-4.85,0-9.29,1.76-12.71,4.67c-3.44,2.93-5.86,7.03-6.64,11.68l6.38,9.68L24.5,29.6l10.1-15.33
			C33.33,14.02,32.03,13.88,30.69,13.88"/>
	</g>
</g>
</svg>
